<svg
 xmlns="http://www.w3.org/2000/svg"
 xmlns:xlink="http://www.w3.org/1999/xlink"
 width="14px" height="14px">
<path fill-rule="evenodd"  fill="rgb(186, 1, 51)"
 d="M11.494,8.633 L9.854,8.633 L10.552,7.606 C11.869,5.816 11.679,2.874 10.144,1.310 C9.315,0.465 8.213,-0.000 7.040,-0.000 C5.868,-0.000 4.766,0.465 3.937,1.310 C2.402,2.874 2.211,5.817 3.524,7.599 L4.226,8.633 L2.506,8.633 L-0.001,14.000 L14.000,14.000 L11.494,8.633 ZM7.081,2.800 C7.964,2.800 8.683,3.533 8.683,4.433 C8.683,5.333 7.964,6.066 7.081,6.066 C6.198,6.066 5.479,5.333 5.479,4.433 C5.479,3.533 6.197,2.800 7.081,2.800 ZM2.795,9.100 L4.543,9.100 L7.040,12.776 L9.538,9.100 L11.204,9.100 L13.275,13.533 L0.724,13.533 L2.795,9.100 Z"/>
</svg>