<svg xmlns="http://www.w3.org/2000/svg" width="14" height="14" viewBox="0 0 14 14">
  <metadata><?xpacket begin="﻿" id="W5M0MpCehiHzreSzNTczkc9d"?>
<x:xmpmeta xmlns:x="adobe:ns:meta/" x:xmptk="Adobe XMP Core 5.6-c142 79.160924, 2017/07/13-01:06:39        ">
   <rdf:RDF xmlns:rdf="http://www.w3.org/1999/02/22-rdf-syntax-ns#">
      <rdf:Description rdf:about=""/>
   </rdf:RDF>
</x:xmpmeta>
                                                                                                    
                                                                                                    
                                                                                                    
                                                                                                    
                                                                                                    
                                                                                                    
                                                                                                    
                                                                                                    
                                                                                                    
                                                                                                    
                                                                                                    
                                                                                                    
                                                                                                    
                                                                                                    
                                                                                                    
                                                                                                    
                                                                                                    
                                                                                                    
                                                                                                    
                                                                                                    
                           
<?xpacket end="w"?></metadata>
<defs>
    <style>
      .cls-1 {
        fill: #ba0133;
        fill-rule: evenodd;
      }
    </style>
  </defs>
  <path id="genre_icon" data-name="genre icon" class="cls-1" d="M6.371,10.78c0,0.679.007,1.358,0,2.036a1.119,1.119,0,0,1-1.177,1.176q-2,.011-4.01,0A1.124,1.124,0,0,1,0,12.814q-0.011-2.036,0-4.073a1.1,1.1,0,0,1,1.141-1.17q2.044-.024,4.089,0A1.1,1.1,0,0,1,6.369,8.744C6.378,9.423,6.371,10.1,6.371,10.78Zm1.253-.013c0-.666-0.005-1.331,0-2a1.111,1.111,0,0,1,1.187-1.2q2-.018,4.01,0a1.113,1.113,0,0,1,1.169,1.184q0.011,2.017,0,4.033A1.131,1.131,0,0,1,12.8,13.993q-1.985.01-3.97,0a1.128,1.128,0,0,1-1.2-1.229C7.621,12.1,7.625,11.433,7.625,10.767Zm6.37-7.527c0,0.652,0,1.3,0,1.956a1.128,1.128,0,0,1-1.208,1.226q-1.985.014-3.969,0a1.108,1.108,0,0,1-1.19-1.2q-0.01-2.016,0-4.032A1.119,1.119,0,0,1,8.829,0Q10.813,0,12.8,0a1.132,1.132,0,0,1,1.2,1.2C14,1.883,13.994,2.562,13.994,3.241ZM3.223,6.425c-0.648,0-1.3,0-1.945,0A1.147,1.147,0,0,1,0,5.145Q0,3.209,0,1.273A1.146,1.146,0,0,1,1.25,0Q3.194,0,5.139,0A1.132,1.132,0,0,1,6.37,1.245Q6.378,3.22,6.37,5.2a1.12,1.12,0,0,1-1.2,1.227C4.52,6.433,3.872,6.425,3.223,6.425Z"/>
</svg>
