<svg
 xmlns="http://www.w3.org/2000/svg"
 xmlns:xlink="http://www.w3.org/1999/xlink"
 width="14px" height="14px">
<path fill-rule="evenodd"  fill="rgb(186, 1, 51)"
 d="M12.600,2.100 L6.216,2.100 L5.600,-0.000 L1.400,-0.000 C0.630,-0.000 -0.000,0.630 -0.000,1.400 L-0.000,10.500 C-0.000,11.270 0.630,11.900 1.400,11.900 L6.300,11.900 L7.000,14.000 L12.600,14.000 C13.370,14.000 14.000,13.370 14.000,12.600 L14.000,3.500 C14.000,2.730 13.370,2.100 12.600,2.100 ZM3.615,8.809 C2.037,8.809 0.756,7.525 0.756,5.950 C0.756,4.375 2.040,3.090 3.615,3.090 C4.343,3.090 5.005,3.349 5.530,3.836 L5.575,3.881 L4.721,4.707 L4.679,4.669 C4.480,4.480 4.133,4.259 3.615,4.259 C2.698,4.259 1.953,5.019 1.953,5.953 C1.953,6.888 2.698,7.647 3.615,7.647 C4.574,7.647 4.991,7.035 5.103,6.625 L3.556,6.625 L3.556,5.540 L6.321,5.540 L6.331,5.589 C6.359,5.736 6.370,5.866 6.370,6.013 C6.366,7.661 5.236,8.809 3.615,8.809 ZM7.472,6.352 L10.269,6.352 C10.269,6.352 10.031,7.273 9.177,8.267 C8.802,7.836 8.543,7.416 8.379,7.080 L7.686,7.080 L7.472,6.352 ZM8.673,8.809 L8.298,9.180 L7.840,7.619 C8.074,8.039 8.358,8.442 8.673,8.809 ZM13.300,12.600 C13.300,12.985 12.985,13.300 12.600,13.300 L7.700,13.300 L9.100,11.900 L8.529,9.964 L9.173,9.320 L11.053,11.200 L11.564,10.689 L9.670,8.809 C10.300,8.085 10.790,7.234 11.011,6.356 L11.900,6.356 L11.900,5.628 L9.355,5.628 L9.355,4.900 L8.627,4.900 L8.627,5.628 L7.255,5.628 L6.422,2.800 L12.600,2.800 C12.985,2.800 13.300,3.115 13.300,3.500 L13.300,12.600 Z"/>
</svg>