<svg xmlns="http://www.w3.org/2000/svg" xmlns:xlink="http://www.w3.org/1999/xlink" preserveAspectRatio="xMidYMid" width="10" height="10" viewBox="0 0 10 10">
  <defs>
    <style>
      .cls-1 {
        fill: #000;
        fill-rule: evenodd;
      }
    </style>
  </defs>
  <path d="M7.861,2.496 C7.830,2.362 7.767,2.220 7.721,2.096 C7.163,0.558 5.946,0.007 4.962,0.007 C3.646,0.007 2.197,1.020 2.003,3.109 L2.003,3.536 C2.003,3.554 2.008,3.714 2.016,3.794 C2.124,4.789 2.809,5.847 3.319,6.842 C3.869,7.909 4.440,8.958 5.005,10.007 C5.353,9.323 5.700,8.629 6.041,7.963 C6.134,7.767 6.241,7.571 6.334,7.385 C6.396,7.260 6.514,7.136 6.569,7.020 C7.118,5.865 8.003,4.700 8.003,3.554 L8.003,3.083 C8.003,2.958 7.869,2.523 7.861,2.496 ZM4.986,4.638 C4.600,4.638 4.176,4.416 3.967,3.803 C3.936,3.705 3.938,3.509 3.938,3.491 L3.938,3.216 C3.938,2.434 4.517,2.078 5.020,2.078 C5.639,2.078 6.118,2.647 6.118,3.358 C6.118,4.069 5.606,4.638 4.986,4.638 Z" class="cls-1"/>
</svg>
