<svg
 xmlns="http://www.w3.org/2000/svg"
 xmlns:xlink="http://www.w3.org/1999/xlink"
 width="20px" height="16px">
<path fill-rule="evenodd"  fill="rgb(136, 136, 136)"
 d="M19.886,8.429 C19.832,8.498 18.603,10.160 16.545,11.667 C15.324,12.557 14.062,13.211 12.791,13.607 C11.824,13.909 10.852,14.060 9.888,14.060 C9.246,14.060 8.609,13.995 7.976,13.860 C7.580,13.778 7.323,13.386 7.409,12.990 C7.490,12.594 7.882,12.337 8.279,12.423 C10.709,12.937 13.188,12.292 15.642,10.507 C16.916,9.580 17.856,8.568 18.338,8.004 C17.521,7.048 16.679,6.232 15.838,5.574 C15.520,5.321 15.462,4.860 15.712,4.541 C15.965,4.222 16.426,4.165 16.749,4.414 C17.811,5.243 18.856,6.289 19.865,7.530 C20.073,7.792 20.082,8.159 19.886,8.429 ZM3.267,15.783 C3.124,15.926 2.936,16.000 2.749,16.000 C2.561,16.000 2.373,15.926 2.230,15.783 C1.944,15.493 1.944,15.028 2.230,14.742 L4.529,12.443 C3.034,11.512 1.572,10.177 0.176,8.461 C-0.033,8.200 -0.041,7.833 0.155,7.563 C0.216,7.477 1.707,5.464 4.162,3.863 C7.458,1.711 10.913,1.352 14.151,2.822 L16.765,0.208 C17.055,-0.078 17.521,-0.082 17.807,0.208 C18.093,0.498 18.093,0.964 17.807,1.250 L3.267,15.783 ZM8.201,8.772 L10.798,6.174 C10.080,5.868 9.210,6.007 8.622,6.595 C8.246,6.971 8.042,7.469 8.042,7.996 C8.042,8.269 8.095,8.531 8.201,8.772 ZM4.966,5.092 C3.394,6.117 2.246,7.346 1.703,7.984 C2.973,9.466 4.280,10.601 5.607,11.369 L7.123,9.854 C6.767,9.303 6.575,8.661 6.575,7.992 C6.575,7.073 6.931,6.207 7.584,5.554 C8.748,4.390 10.549,4.235 11.885,5.092 L13.032,3.945 C10.394,2.936 7.686,3.320 4.966,5.092 Z"/>
</svg>