<svg
 xmlns="http://www.w3.org/2000/svg"
 xmlns:xlink="http://www.w3.org/1999/xlink"
 width="20px" height="12px">
<path fill-rule="evenodd"  fill="rgb(136, 136, 136)"
 d="M19.859,6.430 C19.818,6.487 18.806,7.844 17.087,9.205 C16.070,10.009 15.013,10.651 13.948,11.115 C12.592,11.701 11.221,12.000 9.865,12.000 C6.444,12.000 3.178,10.138 0.162,6.458 C-0.047,6.200 -0.055,5.836 0.141,5.570 C0.182,5.513 1.194,4.156 2.913,2.795 C3.930,1.991 4.987,1.349 6.052,0.884 C7.408,0.299 8.779,-0.000 10.135,-0.000 C13.556,-0.000 16.817,1.866 19.838,5.541 C20.047,5.800 20.055,6.163 19.859,6.430 ZM10.131,1.458 C7.518,1.458 5.281,2.791 3.860,3.910 C2.848,4.709 2.092,5.513 1.680,5.994 C4.293,9.015 7.044,10.546 9.865,10.546 C12.478,10.546 14.715,9.213 16.136,8.094 C17.148,7.298 17.903,6.491 18.316,6.010 C15.703,2.989 12.952,1.458 10.131,1.458 ZM9.996,9.411 C8.093,9.411 6.550,7.880 6.550,6.002 C6.550,4.124 8.093,2.593 9.996,2.593 C10.400,2.593 10.731,2.920 10.731,3.320 C10.731,3.720 10.400,4.047 9.996,4.047 C8.906,4.047 8.020,4.923 8.020,6.002 C8.020,7.080 8.906,7.957 9.996,7.957 C11.086,7.957 11.972,7.080 11.972,6.002 C11.972,5.602 12.302,5.275 12.707,5.275 C13.111,5.275 13.441,5.602 13.441,6.002 C13.441,7.880 11.898,9.411 9.996,9.411 Z"/>
</svg>