<svg
 xmlns="http://www.w3.org/2000/svg"
 xmlns:xlink="http://www.w3.org/1999/xlink"
 width="14px" height="14px">
<path fill-rule="evenodd"  fill="rgb(26, 179, 148)"
 d="M7.000,-0.000 C3.118,-0.000 -0.000,3.118 -0.000,7.000 C-0.000,10.882 3.118,14.000 7.000,14.000 C10.882,14.000 14.000,10.882 14.000,7.000 C14.000,3.118 10.882,-0.000 7.000,-0.000 ZM11.041,4.804 L11.041,4.804 L11.041,4.804 L5.950,10.086 C5.886,10.150 5.823,10.182 5.727,10.182 C5.632,10.182 5.536,10.150 5.504,10.086 L3.023,7.413 L2.959,7.350 C2.895,7.286 2.864,7.191 2.864,7.127 C2.864,7.064 2.895,6.968 2.959,6.904 L3.404,6.459 C3.532,6.332 3.723,6.332 3.850,6.459 L3.882,6.491 L5.632,8.368 C5.695,8.432 5.791,8.432 5.855,8.368 L10.118,3.945 L10.150,3.945 C10.277,3.818 10.468,3.818 10.595,3.945 L11.041,4.391 C11.168,4.486 11.168,4.677 11.041,4.804 Z"/>
</svg>